<svg                                
                                    viewBoxSize="575"
                                    data-root-id="5296200791889"
                                    xmlns="http://www.w3.org/2000/svg"
                                    xmlns:xlink="http://www.w3.org/1999/xlink"
                                    version="1.1"
                                    id="Layer_1"
                                    x="22.52815375893803"
                                    y="152.78396929724747"
                                    viewBox="387.93994140625 393.8600158691406 214.17010498046875 218.27987670898438"
                                    xml:space="preserve"
                                    height="417.44954377173747"
                                    width="409.5897092657574"
                                    preserveAspectRatio="xMinYMin"
                                    zoom="1"
                                    editorType="buyer"
                                    data-layer-role="icon"
                                    style="position: absolute; height: 10px; width: 10px; top: 0px; left: 0px;"
                                    >
                                    <path
                                        class="st0"
                                        d="M549.91,540.79c7.49,0.7,13.95,5.72,16.53,12.93c2.99,8.35-0.17,17.02-2.93,25.46   c11.83-14.29,18.36-32.8,18.81-51.34c-8.77,8.02-20.53,12.67-32.41,12.87C549.91,540.72,549.91,540.75,549.91,540.79z"
                                        name="Layer %{number}"
                                        zoom="1"
                                        data-layer-id="9001169391889"
                                        style="fill: #fff ;"
                                    ></path>
                                    <path
                                        class="st0"
                                        d="M574.14,468.42l-4.38-10.9c-1.2-2.98-3.09-5.63-5.52-7.74l-12.84-11.13l-0.82-1.49   c-8.01-14.64-22.64-24.54-39.24-26.33c-3.46-0.38-7.11-0.68-10.87-0.88c-0.07,0.16-0.13,0.33-0.2,0.48   c-1.54,3.55-2.74,7.24-3.55,10.98c7.59,4.87,12.19,13.18,12.19,22.36c0,14.66-11.93,26.59-26.6,26.59c-1.19,0-2.35-0.08-3.5-0.24   c-0.11-0.01-0.22-0.03-0.32-0.05c-0.3-0.03-0.6-0.08-0.89-0.14c-0.4-0.06-0.8-0.14-1.19-0.24c-0.4-0.08-0.79-0.18-1.18-0.3   c-0.37-0.09-0.73-0.2-1.09-0.32c-0.4-0.13-0.79-0.27-1.19-0.42c-1.12-0.41-2.2-0.9-3.23-1.47c-0.35-0.19-0.69-0.39-1.03-0.59   c-0.34-0.19-0.67-0.4-1-0.63c-0.33-0.21-0.65-0.43-0.97-0.67c-0.32-0.22-0.63-0.46-0.93-0.71c-0.24-0.19-0.47-0.38-0.7-0.58   c-0.16-0.13-0.32-0.27-0.47-0.41c-0.03-0.02-0.06-0.05-0.09-0.08c-0.18-0.15-0.35-0.31-0.51-0.47c-0.02-0.01-0.04-0.03-0.06-0.05   c-0.24-0.22-0.46-0.45-0.68-0.68c-0.82-0.84-1.59-1.73-2.28-2.67c-0.06-0.08-0.13-0.17-0.19-0.26c-0.16-0.21-0.31-0.42-0.45-0.63   c-0.09-0.13-0.18-0.26-0.26-0.39c-0.35-0.52-0.68-1.05-0.98-1.6c-0.08-0.14-0.16-0.28-0.23-0.42c-0.21-0.38-0.41-0.77-0.59-1.17   c-0.14-0.29-0.27-0.58-0.4-0.87c-0.15-0.34-0.29-0.69-0.42-1.04c-0.03-0.05-0.05-0.11-0.07-0.17c-0.09-0.22-0.17-0.45-0.25-0.68   c-0.04-0.12-0.08-0.25-0.12-0.37c-0.11-0.32-0.21-0.65-0.3-0.98c-0.1-0.33-0.18-0.65-0.26-0.98c-0.11-0.43-0.2-0.87-0.28-1.31   c-0.07-0.34-0.13-0.69-0.18-1.04c-0.05-0.31-0.09-0.62-0.12-0.94c-0.12-0.99-0.18-2-0.18-3.02c0-9.12,4.66-17.54,12.27-22.41   c0.77-3.52,1.84-6.98,3.16-10.33c-0.12,0.02-0.25,0.03-0.37,0.05c-2.02,0.3-4.62,0.9-7.24,1.58c-5.72,1.5-11.52,3.41-11.52,3.52   c-37.46,14.28-64.08,50.53-64.08,93.01c0,14.38,3.12,27.96,8.67,40.24c0.79,1.75,1.63,3.48,2.51,5.18c0.89,1.69,1.82,3.36,2.8,5   c0.42,0.72,0.86,1.43,1.3,2.13c0.19,0.3,0.38,0.6,0.57,0.9c0.39,0.61,0.79,1.2,1.19,1.8c0.4,0.6,0.81,1.2,1.24,1.79   c0.01,0.03,0.04,0.06,0.07,0.09c0.22,0.32,0.45,0.64,0.68,0.95c0.43,0.61,0.88,1.21,1.33,1.81c-0.14-0.4-0.27-0.8-0.4-1.2   c-0.1-0.28-0.2-0.57-0.29-0.86c-0.23-0.67-0.44-1.35-0.64-2.03c-0.54-1.81-1.04-3.64-1.47-5.48c-0.13-0.52-0.25-1.04-0.36-1.56   c-0.18-0.8-0.35-1.6-0.5-2.4c-0.13-0.63-0.25-1.26-0.36-1.89c-0.18-0.96-0.33-1.92-0.47-2.88c-0.1-0.65-0.19-1.3-0.27-1.96   c-0.09-0.65-0.17-1.3-0.24-1.96c-0.18-1.57-0.32-3.14-0.42-4.72c-0.02-0.31-0.04-0.62-0.06-0.93c-0.07-1.17-0.12-2.35-0.14-3.52   c-0.01-0.39-0.02-0.78-0.03-1.18c-0.02-1.11-0.01-2.22,0.01-3.33c0.01-0.45,0.02-0.9,0.03-1.36c0.03-1.06,0.08-2.12,0.14-3.19   c0.04-0.7,0.09-1.41,0.14-2.12c0.04-0.53,0.08-1.06,0.13-1.58c0.05-0.62,0.11-1.23,0.18-1.85c0.13-1.25,0.28-2.5,0.46-3.75   c0.42-2.99,0.97-5.96,1.62-8.91c0.14-0.67,0.3-1.33,0.46-2c0.02-0.06,0.04-0.13,0.05-0.2c0.33-1.38,0.69-2.76,1.08-4.12   c0.03-0.08,0.05-0.16,0.07-0.24c0.38-1.36,0.79-2.7,1.23-4.04c0.04-0.09,0.06-0.18,0.09-0.27c3.74-11.45,9.28-22.29,16.43-31.92   c0,0,0-0.01,0.01-0.01c4.58-6.18,9.84-11.85,15.71-16.86c-11.24,18.24-36.16,70.94-2.2,122.92c0,0.02,0.01,0.04,0.02,0.06   c0.09,0.15,0.19,0.3,0.29,0.45c0.68,1.05,1.4,2.1,2.15,3.15c0.33,0.47,0.67,0.94,1.01,1.41c0.05,0.08,0.1,0.15,0.16,0.22   c0.05,0.09,0.12,0.18,0.19,0.28c0.16,0.21,0.32,0.42,0.48,0.63c0,0.01,0.01,0.01,0.01,0.01c0.25,0.33,0.5,0.66,0.76,1   c0.04,0.07,0.08,0.13,0.14,0.19c0.23,0.32,0.47,0.63,0.73,0.94c1.03,1.35,2.13,2.69,3.27,4.03c0.26,0.32,0.53,0.63,0.8,0.94   c0.4,0.48,0.82,0.95,1.24,1.42c0.26,0.3,0.53,0.6,0.81,0.9c0.5,0.57,1.02,1.13,1.55,1.7c-0.33-0.74-0.65-1.49-0.96-2.23   c-0.32-0.74-0.62-1.48-0.92-2.21c-0.28-0.68-0.56-1.36-0.82-2.04c-0.27-0.68-0.54-1.36-0.79-2.03c-0.26-0.68-0.51-1.35-0.76-2.02   c-0.25-0.66-0.49-1.33-0.73-1.99v-0.01c-0.21-0.58-0.41-1.17-0.61-1.75c-0.25-0.71-0.48-1.41-0.71-2.11   c-0.22-0.66-0.44-1.32-0.64-1.98c-0.21-0.66-0.42-1.31-0.61-1.96c-0.47-1.54-0.91-3.07-1.33-4.59c-0.42-1.52-0.81-3.02-1.16-4.51   c-0.09-0.33-0.17-0.66-0.24-0.98c-0.19-0.77-0.36-1.53-0.52-2.29c-0.18-0.79-0.35-1.58-0.5-2.36c-0.28-1.31-0.53-2.6-0.75-3.87   c-0.1-0.56-0.2-1.12-0.29-1.66c-0.3-1.78-0.56-3.54-0.79-5.27c-0.07-0.59-0.15-1.18-0.21-1.76c-0.16-1.26-0.29-2.51-0.4-3.75   c-0.12-1.24-0.22-2.47-0.29-3.68c-0.04-0.61-0.08-1.22-0.1-1.82c-0.02-0.4-0.04-0.8-0.06-1.2c-0.02-0.33-0.03-0.67-0.04-1v-0.09   c-0.02-0.43-0.04-0.86-0.04-1.28c-0.03-0.6-0.03-1.19-0.04-1.77c-0.01-0.62-0.02-1.23-0.01-1.84c0-1.03,0.01-2.06,0.04-3.07v-0.05   c0.02-1.04,0.06-2.06,0.11-3.06c0.04-1.03,0.11-2.04,0.18-3.04c0.06-0.97,0.14-1.93,0.24-2.87c0-0.04,0.01-0.07,0.01-0.11   c2.32-24.17,11.2-41.58,18.81-49.58c-11.69,22.22-14.5,49-9.35,73.69c0.6,2.92,1.32,5.81,2.15,8.66   c6.49,22.31,20.35,42.37,38.74,56.53c0.3,0.23,0.6,0.46,0.91,0.69c0.3,0.23,0.61,0.45,0.92,0.68c0.85,0.64,1.7,1.25,2.57,1.85   c0.62,0.43,1.24,0.85,1.87,1.27c0.64,0.42,1.29,0.84,1.94,1.25c0.38,0.24,0.76,0.48,1.15,0.72c0.9,0.56,1.8,1.1,2.72,1.62   c-2.78-4.14-5.34-8.37-7.65-12.65c-0.77-1.43-1.52-2.87-2.23-4.31c-1.08-2.16-2.09-4.34-3.04-6.53c-0.31-0.74-0.62-1.47-0.93-2.21   c-0.3-0.73-0.6-1.47-0.88-2.2c-0.59-1.47-1.14-2.95-1.65-4.43c-0.26-0.74-0.51-1.48-0.75-2.23c-0.23-0.66-0.44-1.32-0.64-1.98   c-0.45-1.43-0.87-2.87-1.26-4.31c-0.12-0.41-0.23-0.82-0.33-1.24c-0.08-0.31-0.16-0.62-0.24-0.93s-0.15-0.62-0.23-0.93   c-0.01-0.02-0.01-0.04-0.01-0.05c-0.16-0.59-0.29-1.18-0.42-1.78c-0.15-0.64-0.3-1.28-0.42-1.92c-0.08-0.36-0.16-0.72-0.22-1.08   c-0.43-2.01-0.77-4.03-1.06-6.06c-0.12-0.76-0.22-1.52-0.31-2.28c-0.1-0.76-0.19-1.51-0.26-2.27c-0.09-0.76-0.16-1.52-0.22-2.28   c-0.07-0.76-0.12-1.52-0.16-2.28c-0.11-1.53-0.17-3.05-0.2-4.57c-0.07-2.74-0.02-5.47,0.13-8.2v-0.01   c0.23-4.2,0.72-8.38,1.46-12.56c0.13,0.42,0.24,0.85,0.38,1.27c3.8,11.59,11.46,21.83,21.35,28.96c0.6,0.42,1.2,0.84,1.81,1.25   c1.22,0.83,2.47,1.6,3.76,2.31c0.64,0.36,1.28,0.7,1.94,1.04c0.65,0.33,1.31,0.65,1.98,0.96c0.67,0.31,1.34,0.61,2.02,0.89   c-14.09-13.36-22.2-33.44-21.12-52.83c0.03-0.57,0.07-1.14,0.12-1.71c0.03-0.4,0.06-0.81,0.12-1.22c0-0.08,0.01-0.16,0.02-0.23   c0.01-0.19,0.03-0.36,0.06-0.54c-0.01-0.02,0-0.03,0-0.04c0.04-0.46,0.1-0.91,0.17-1.37c0.15-1.13,0.34-2.26,0.55-3.38   c0.1-0.56,0.22-1.12,0.34-1.68s0.24-1.11,0.38-1.67c0.17-0.68,0.35-1.36,0.54-2.04c0.42-1.52,0.9-3.03,1.42-4.52v-0.01   c0.38-1.07,0.78-2.13,1.23-3.18c0.22-0.53,0.44-1.06,0.67-1.58c0.22-0.52,0.46-1.04,0.71-1.56c0.23-0.52,0.48-1.03,0.75-1.54v-0.01   c2.34-4.68,5.21-9.08,8.54-13.1c-2.04,5.94-2.18,12.82-0.6,18.67c2.77,10.23,11.56,18.36,21.76,21.23c1.94,0.55,3.92,0.91,5.91,1.1   h0.01c8.5,0.84,17.3-1.41,24.6-5.91c-3.7,6.07-9.07,11.23-15.8,13.5c-4.25,1.43-8.82,1.89-13.28,1.39   c-0.09-0.01-0.17-0.02-0.26-0.03c-0.24-0.03-0.48-0.06-0.72-0.1c-0.32-0.05-0.64-0.1-0.97-0.16c-0.2-0.03-0.39-0.06-0.58-0.11   c-0.24-0.04-0.48-0.09-0.72-0.15c-0.18-0.03-0.36-0.07-0.55-0.12c-0.34-0.09-0.68-0.18-1.02-0.27c-0.32-0.08-0.63-0.18-0.94-0.28   c-0.28-0.09-0.56-0.18-0.84-0.28c-0.34-0.11-0.68-0.24-1.02-0.37c0.29,0.19,0.58,0.37,0.87,0.54c0.29,0.18,0.58,0.36,0.88,0.53   c0.59,0.35,1.19,0.68,1.79,0.99c5.28,2.79,11.11,4.51,17.01,4.95c4.9,0.37,9.85-0.13,14.58-1.63c-1.37,4.25-5.75,7.74-10.06,8.91   c2.99,0.94,6.02,1.55,9.05,1.81c1.86,0.17,3.73,0.2,5.59,0.1c1.37-0.06,2.73-0.2,4.09-0.42c0.43-0.07,0.85-0.14,1.27-0.22   c0.63-0.11,1.27-0.25,1.9-0.4c0.63-0.14,1.26-0.31,1.88-0.49c0.01,0,0.01,0,0.01,0c0.67-0.19,1.33-0.41,1.99-0.63   c0.5-0.18,0.99-0.36,1.48-0.55c0.5-0.19,0.99-0.39,1.48-0.6c9-3.87,16.55-10.99,20.98-19.72c-0.3-0.13-0.6-0.27-0.9-0.42   c-0.06-0.02-0.12-0.05-0.17-0.08c-0.14-0.07-0.28-0.14-0.42-0.21c-0.2-0.1-0.4-0.2-0.6-0.31c-0.17-0.09-0.34-0.18-0.51-0.28   c-0.33-0.19-0.67-0.38-0.99-0.59c-0.37-0.22-0.73-0.46-1.09-0.71c-0.27-0.18-0.53-0.36-0.79-0.56c-0.15-0.11-0.31-0.22-0.46-0.34   c-1.04-0.78-2.04-1.65-2.99-2.59c-0.38-0.38-0.75-0.77-1.11-1.17c1.82,0.43,3.66,0.75,5.52,0.95c0.38,0.04,0.75,0.08,1.13,0.11   c0.33,0.03,0.67,0.06,1,0.08c0.28,0.03,0.57,0.04,0.85,0.06c0.39,0.02,0.78,0.04,1.16,0.05c0.45,0.01,0.9,0.02,1.35,0.02   c0.46,0,0.93-0.01,1.4-0.02l3.15-8.27L574.14,468.42z M552.8,473.01c-0.35-0.18-0.69-0.38-1.03-0.59c-0.68-0.4-1.35-0.81-2.02-1.24   c-0.33-0.2-0.67-0.42-1-0.66c-0.33-0.22-0.66-0.45-0.99-0.68c-0.32-0.22-0.65-0.46-0.97-0.71c-0.66-0.48-1.32-0.99-1.96-1.51   c-0.3-0.23-0.6-0.48-0.9-0.74c-1.26-1.05-2.48-2.16-3.67-3.34c-0.26-0.24-0.52-0.5-0.78-0.77c-0.63-0.64-1.26-1.3-1.87-1.98   c-0.21-0.23-0.42-0.46-0.63-0.7c4.96,0.46,9.93,0.91,14.9,1.36c3.61,5.3,7.26,10.56,10.87,15.86   C559.28,476.21,555.97,474.78,552.8,473.01z"
                                        name="Layer %{number}"
                                        zoom="1"
                                        data-layer-id="2420228691889"
                                        style="fill: #fff ;"
                                    ></path>
                                    <path
                                        class="st1"
                                        d="M567.64,561.31c-0.08,5.94-2.2,11.95-4.13,17.85c11.83-14.29,18.36-32.8,18.81-51.34   c-2.26,2.07-4.72,3.9-7.33,5.51C574.14,542.98,571.66,552.5,567.64,561.31z"
                                        name="Layer %{number}"
                                        zoom="1"
                                        data-layer-id="6567762791889"
                                        style="fill: #fff ;"
                                    ></path>
                                    <path
                                        class="st1"
                                        d="M475.31,470.36c1.19,0,2.35-0.09,3.5-0.24c-13.01-1.72-23.09-12.88-23.09-26.36c0-9.12,4.66-17.54,12.27-22.41   c0.77-3.52,1.83-6.98,3.16-10.33c-0.12,0.02-0.25,0.03-0.37,0.05c-2.02,0.3-4.62,0.89-7.24,1.58c-1.04,2.84-1.91,5.75-2.55,8.7   c-7.62,4.87-12.27,13.29-12.27,22.41C448.72,458.43,460.65,470.36,475.31,470.36z"
                                        name="Layer %{number}"
                                        zoom="1"
                                        data-layer-id="1854599591889"
                                        style="fill: #fff ;"
                                    ></path>
                                    <path
                                        class="st1"
                                        d="M560.25,497.09c-6.96,6.64-20.15,10.65-26.36,11.23c8.5,0.84,17.3-1.41,24.6-5.91   C559.67,500.99,560.05,498.68,560.25,497.09z"
                                        name="Layer %{number}"
                                        zoom="1"
                                        data-layer-id="8394259791889"
                                        style="fill: #fff ;"
                                    ></path>
                                    <path
                                        class="st1"
                                        d="M557.92,517.91c-6.99,3.72-13.32,4.24-16.04,4.48c0.15,0.01,0.3,0.03,0.46,0.05c4.9,0.37,9.85-0.13,14.58-1.63   C557.18,520.31,557.75,518.44,557.92,517.91z"
                                        name="Layer %{number}"
                                        zoom="1"
                                        data-layer-id="8361265491889"
                                        style="fill: #fff ;"
                                    ></path>
                                    <path
                                        class="st1"
                                        d="M566.69,483.12c-0.98-1.44-2.96-4.38-3.94-5.81c-3.47-1.1-6.78-2.53-9.95-4.3c-0.35-0.18-0.69-0.38-1.03-0.59   c-0.68-0.4-1.35-0.81-2.02-1.24c-0.33-0.2-0.67-0.42-1-0.66c-0.33-0.22-0.66-0.45-0.99-0.68c-0.32-0.22-0.65-0.46-0.97-0.71   c-0.66-0.48-1.32-0.99-1.96-1.51c-0.3-0.23-0.6-0.48-0.9-0.74c-1.26-1.05-2.48-2.16-3.67-3.34c-0.26-0.24-0.52-0.5-0.78-0.77   c-0.63-0.64-1.26-1.3-1.87-1.98c-0.21-0.23-0.42-0.46-0.63-0.7c-2.54-0.23-5.04-0.45-7.58-0.68   C536.8,467.78,542.4,475.89,566.69,483.12z"
                                        name="Layer %{number}"
                                        zoom="1"
                                        data-layer-id="7671377591889"
                                        style="fill: #fff ;"
                                    ></path>
                                    <path
                                        class="st1"
                                        d="M440.49,450.76c2.18-4.36,4.64-7.01,7.14-11.07c-41.33,25.61-55.94,73.61-51.02,109.74   c0.79,1.75,1.63,3.48,2.51,5.18c0.89,1.69,1.82,3.36,2.8,5c0.42,0.72,0.86,1.43,1.3,2.13c0.19,0.3,0.38,0.6,0.57,0.9   c0.39,0.61,0.79,1.2,1.19,1.8c0.4,0.6,0.81,1.2,1.24,1.79c0.01,0.03,0.04,0.06,0.07,0.09c0.22,0.32,0.45,0.64,0.68,0.95   c0.43,0.61,0.88,1.21,1.33,1.81c-0.14-0.4-0.27-0.8-0.4-1.2c-0.1-0.28-0.2-0.57-0.29-0.86c-0.23-0.67-0.44-1.35-0.64-2.03   c-0.54-1.81-1.04-3.64-1.47-5.48c-0.13-0.52-0.25-1.04-0.36-1.56c-0.18-0.8-0.35-1.6-0.5-2.4c-0.13-0.63-0.25-1.26-0.36-1.89   c-0.18-0.96-0.33-1.92-0.47-2.88c-0.1-0.65-0.19-1.3-0.27-1.96c-0.09-0.65-0.17-1.3-0.24-1.96c-0.18-1.57-0.32-3.14-0.42-4.72   c-0.02-0.31-0.04-0.62-0.06-0.93c-0.07-1.17-0.12-2.35-0.14-3.52c-0.01-0.39-0.02-0.78-0.03-1.18c-0.02-1.11-0.01-2.22,0.01-3.33   c0.01-0.45,0.02-0.9,0.03-1.36c0.03-1.06,0.08-2.12,0.14-3.19c0.04-0.7,0.09-1.41,0.14-2.12c0.04-0.53,0.08-1.06,0.13-1.58   c0.05-0.62,0.11-1.23,0.18-1.85c0.13-1.25,0.28-2.5,0.46-3.75c0.42-2.99,0.97-5.96,1.62-8.91c0.14-0.67,0.3-1.33,0.46-2   c0.02-0.06,0.04-0.13,0.05-0.2c0.33-1.38,0.69-2.76,1.08-4.12c0.03-0.08,0.05-0.16,0.07-0.24c0.38-1.36,0.79-2.7,1.23-4.04   c0.04-0.09,0.06-0.18,0.09-0.27c3.74-11.45,9.28-22.29,16.43-31.92c0,0,0-0.01,0.01-0.01   C429.36,461.44,434.62,455.77,440.49,450.76z"
                                        name="Layer %{number}"
                                        zoom="1"
                                        data-layer-id="0013081691889"
                                        style="fill: #fff ;"
                                    ></path>
                                    <path
                                        class="st1"
                                        d="M574.14,468.42l-4.38-10.89c-1.2-2.98-3.09-5.64-5.52-7.74l-12.84-11.13l-0.82-1.5   c-8.02-14.64-22.64-24.54-39.24-26.33c-3.46-0.37-7.11-0.67-10.87-0.87c-0.07,0.16-0.13,0.32-0.2,0.48   c1.38,0.12,2.74,0.25,4.07,0.39c16.59,1.79,31.22,11.69,39.24,26.33l0.82,1.5l12.84,11.13c2.43,2.11,4.32,4.76,5.52,7.74   l4.38,10.89l27.97,25.91l-3.04,7.97c2.28,0.26,4.59,0.37,6.89,0.3l3.15-8.27L574.14,468.42z"
                                        name="Layer %{number}"
                                        zoom="1"
                                        data-layer-id="1466539691889"
                                        style="fill: #fff ;"
                                    ></path>
                                    <path
                                        class="st1"
                                        d="M579.55,501.34c2.92,3.2,6.31,5.62,10.04,7.26c-4.43,8.73-11.98,15.85-20.98,19.72   c-4.12,1.77-8.38,2.84-12.69,3.21c6.67,0.58,13.36-0.48,19.69-3.21c9-3.87,16.55-10.99,20.98-19.72c-3.26-1.43-6.27-3.46-8.92-6.09   C584.93,502.35,582.21,501.98,579.55,501.34z"
                                        name="Layer %{number}"
                                        zoom="1"
                                        data-layer-id="0275935391889"
                                        style="fill: #fff ;"
                                    ></path>
                                    <path
                                        class="st1"
                                        d="M490.71,595.18c-1.08-2.16-2.09-4.34-3.04-6.53c-0.31-0.74-0.62-1.47-0.93-2.21c-0.3-0.73-0.6-1.47-0.88-2.2   c-0.59-1.47-1.14-2.95-1.65-4.43c-0.26-0.74-0.51-1.48-0.75-2.23c-0.23-0.66-0.44-1.32-0.64-1.98c-0.45-1.43-0.87-2.87-1.26-4.31   c-0.12-0.41-0.23-0.82-0.33-1.24c-0.08-0.31-0.16-0.62-0.24-0.93s-0.15-0.62-0.23-0.93c-0.01-0.02-0.01-0.04-0.01-0.05   c-0.16-0.59-0.29-1.18-0.42-1.78c-0.15-0.64-0.3-1.28-0.42-1.92c-0.08-0.36-0.16-0.72-0.22-1.08c-0.43-2.01-0.77-4.03-1.06-6.06   c-0.12-0.76-0.22-1.52-0.31-2.28c-0.1-0.76-0.19-1.51-0.26-2.27c-0.09-0.76-0.16-1.52-0.22-2.28c-0.07-0.76-0.12-1.52-0.16-2.28   c-0.11-1.53-0.17-3.05-0.2-4.57c-0.07-2.74-0.02-5.47,0.13-8.2v-0.01c0.23-4.2,0.72-8.38,1.46-12.56   c-1.74-4.9-4.27-17.65-4.4-18.07c-4.89,27.44-11.67,56.33,13.84,99.28c0.3,0.23,0.6,0.46,0.91,0.69c0.3,0.23,0.61,0.45,0.92,0.68   c0.85,0.64,1.7,1.25,2.57,1.85c0.62,0.43,1.24,0.85,1.87,1.27c0.64,0.42,1.29,0.84,1.94,1.25c0.38,0.24,0.76,0.48,1.15,0.72   c0.9,0.56,1.8,1.1,2.72,1.62c-2.78-4.14-5.34-8.37-7.65-12.65C492.17,598.06,491.42,596.62,490.71,595.18z"
                                        name="Layer %{number}"
                                        zoom="1"
                                        data-layer-id="0038611691889"
                                        style="fill: #fff ;"
                                    ></path>
                                    <path
                                        class="st1"
                                        d="M437.62,523.84c0.02-1.04,0.06-2.06,0.11-3.06c0.04-1.03,0.11-2.04,0.18-3.04c0.06-0.97,0.14-1.93,0.24-2.87   c0-0.04,0.01-0.07,0.01-0.11c2.32-24.17,11.2-41.58,18.81-49.58c0,0-2.41-1.49-4.55-4.19c-12.89,13.55-31.8,58.22-14.13,112.69   c0,0.02,0.01,0.04,0.02,0.06c0,0.01,0.01,0.03,0.01,0.04c0.09,0.14,0.18,0.27,0.28,0.41c0.68,1.05,1.4,2.1,2.15,3.15   c0.33,0.47,0.67,0.94,1.01,1.41c0.05,0.08,0.1,0.15,0.16,0.22c0.22,0.31,0.44,0.61,0.67,0.91c0,0.01,0.01,0.01,0.01,0.01   c0.25,0.33,0.5,0.66,0.76,1c0.04,0.07,0.08,0.13,0.14,0.19c0.23,0.32,0.47,0.63,0.73,0.94c1.03,1.35,2.13,2.69,3.27,4.03   c0.26,0.32,0.53,0.63,0.8,0.94c0.4,0.48,0.82,0.95,1.24,1.42c0.26,0.3,0.53,0.6,0.81,0.9c0.5,0.57,1.02,1.13,1.55,1.7   c-0.33-0.74-0.65-1.49-0.96-2.23c-0.32-0.74-0.62-1.48-0.92-2.21c-0.28-0.68-0.56-1.36-0.82-2.04c-0.27-0.68-0.54-1.36-0.79-2.03   c-0.26-0.68-0.51-1.35-0.76-2.02c-0.25-0.66-0.49-1.33-0.73-1.99v-0.01c-0.21-0.58-0.41-1.17-0.61-1.75   c-0.25-0.71-0.48-1.41-0.71-2.11c-0.22-0.66-0.44-1.32-0.64-1.98c-0.21-0.66-0.42-1.31-0.61-1.96c-0.47-1.54-0.91-3.07-1.33-4.59   c-0.42-1.52-0.81-3.02-1.16-4.51c-0.09-0.33-0.17-0.66-0.24-0.98c-0.19-0.77-0.36-1.53-0.52-2.29c-0.18-0.79-0.35-1.58-0.5-2.36   c-0.28-1.31-0.53-2.6-0.75-3.87c-0.1-0.56-0.2-1.12-0.29-1.66c-0.3-1.78-0.56-3.54-0.79-5.27c-0.07-0.59-0.15-1.18-0.21-1.76   c-0.16-1.26-0.29-2.51-0.4-3.75c-0.12-1.24-0.22-2.47-0.29-3.68c-0.04-0.61-0.08-1.22-0.1-1.82c-0.02-0.4-0.04-0.8-0.06-1.2   c-0.02-0.33-0.03-0.67-0.04-1v-0.09c-0.02-0.43-0.04-0.86-0.04-1.28c-0.03-0.6-0.03-1.19-0.04-1.77c-0.01-0.62-0.02-1.23-0.01-1.84   c0-1.03,0.01-2.06,0.04-3.07V523.84z"
                                        name="Layer %{number}"
                                        zoom="1"
                                        data-layer-id="0480009291889"
                                        style="fill: #fff ;"
                                    ></path>
                                    <path
                                        class="st1"
                                        d="M491.19,506.7c0.03-0.57,0.07-1.14,0.12-1.71c0.03-0.4,0.06-0.81,0.12-1.22c0-0.08,0.01-0.16,0.02-0.23   c0.01-0.19,0.03-0.36,0.06-0.54c-0.01-0.02,0-0.03,0-0.04c0.04-0.46,0.1-0.91,0.17-1.37c0.15-1.13,0.34-2.26,0.55-3.38   c0.1-0.56,0.22-1.12,0.34-1.68s0.24-1.11,0.38-1.67c0.17-0.68,0.35-1.36,0.54-2.04c0.42-1.52,0.9-3.03,1.42-4.52v-0.01   c0.38-1.07,0.78-2.13,1.23-3.18c0.22-0.53,0.44-1.06,0.67-1.58c0.22-0.52,0.46-1.04,0.71-1.56c0.23-0.52,0.48-1.03,0.75-1.54v-0.01   c2.34-4.68,5.21-9.08,8.54-13.1c-1.41-2.77-2.17-4.05-3.59-5.78c-9.16,11.05-18.24,30.81-19.03,45.16   c-0.86,15.35,4.07,31.12,13.14,43.66c1.13,0.95,2.28,1.86,3.47,2.72c0.6,0.42,1.2,0.84,1.81,1.25c1.22,0.82,2.48,1.59,3.76,2.31   c0.64,0.36,1.28,0.7,1.94,1.04c0.65,0.33,1.31,0.65,1.98,0.96c0.67,0.31,1.34,0.61,2.02,0.89   C498.22,546.17,490.11,526.09,491.19,506.7z"
                                        name="Layer %{number}"
                                        zoom="1"
                                        data-layer-id="5325371191889"
                                        style="fill: #fff ;"
                                    ></path>
                                    <path
                                        class="st2"
                                        d="M510.31,394.44c-0.01-0.01-0.02-0.01-0.03-0.02c-0.75-0.37-1.58-0.56-2.41-0.56h-12.52  c-3.46,0-6.77,1.52-8.94,4.21c-2.98,3.69-5.53,7.73-7.6,11.99c-2.44,5.02-4.22,10.36-5.25,15.84c-7.29,3.95-12.17,11.8-11.82,20.76  c0.43,11.2,9.25,20.48,20.34,21.57c0.26,0.03,0.52,0.07,0.79,0.09c13.13,0.81,24.03-9.6,24.03-22.55c0-8.91-5.15-16.61-12.65-20.29  c0.9-5.37,2.52-10.62,4.75-15.6c0.23-0.5,0.47-1,0.71-1.5c0.23-0.5,0.47-0.99,0.74-1.48v-0.01c0.29-0.58,0.6-1.16,0.93-1.74  c1.8-3.3,3.91-6.44,6.28-9.37v-0.01c0.36-0.43,0.69-0.85,1.05-1.27c-0.2,0.37-0.47,0.87-0.78,1.46c-0.65,1.24-1.48,2.87-2.24,4.49  c-0.76,1.62-1.44,3.23-1.8,4.41c1.35,1.26,1.89,2.5,2.42,4.27c4.22-0.29,8.48,0.19,12.55,1.33c0.48,0.13,0.96,0.28,1.43,0.44  c0.86,0.27,1.71,0.57,2.55,0.92c0.53,0.2,1.05,0.43,1.57,0.66C522.71,404.77,517.36,397.97,510.31,394.44z"
                                        name="Layer %{number}"
                                        zoom="1"
                                        data-layer-id="7107803591889"
                                        style="fill: #2d2d30;"
                                    ></path>
                                    <path
                                        class="st3"
                                        d="M510.31,394.44c-0.01,0-0.02-0.01-0.03-0.01c-0.75-0.37-1.58-0.56-2.41-0.56h-4.35c-0.01,0-0.01,0-0.02,0  c0,0,0,0,0,0h-0.63c0.2,0,0.41,0.01,0.61,0.03c0,0,0,0,0,0c-3.93,4.62-6.98,10.45-9.47,15.98c-2.23,4.98-3.85,10.23-4.75,15.6  c7.5,3.68,12.65,11.38,12.65,20.29c0,11.6-8.75,21.16-20.01,22.44c0.33,0.03,0.65,0.09,0.98,0.11c13.13,0.81,24.03-9.6,24.03-22.55  c0-8.91-5.15-16.61-12.65-20.29c0.9-5.37,2.52-10.62,4.75-15.6c0.23-0.5,0.47-1,0.71-1.5c0.24-0.5,0.49-0.99,0.74-1.48v-0.01  c-0.08-0.18,0.3-0.83,0.93-1.74c1.8-3.3,3.91-6.44,6.28-9.37c0,0,0,0,0,0c0.35-0.43,0.69-0.86,1.05-1.28  c-0.2,0.36-0.47,0.87-0.78,1.45c5.16,3.4,9.11,8.62,10.94,14.52c1.89,0.53,3.75,1.19,5.54,2  C522.71,404.77,517.36,397.97,510.31,394.44z"
                                        name="Layer %{number}"
                                        zoom="1"
                                        data-layer-id="5509662791889"
                                        style="fill: #fff ;"
                                    ></path>
                                </svg>